<svg width="34" height="34" viewBox="0 0 34 34" fill="none" xmlns="http://www.w3.org/2000/svg">
<path fill-rule="evenodd" clip-rule="evenodd" d="M15.3333 3.5C8.79796 3.5 3.5 8.79796 3.5 15.3333C3.5 21.8687 8.79796 27.1667 15.3333 27.1667C21.8687 27.1667 27.1667 21.8687 27.1667 15.3333C27.1667 8.79796 21.8687 3.5 15.3333 3.5ZM0.5 15.3333C0.5 7.14111 7.14111 0.5 15.3333 0.5C23.5256 0.5 30.1667 7.14111 30.1667 15.3333C30.1667 23.5256 23.5256 30.1667 15.3333 30.1667C7.14111 30.1667 0.5 23.5256 0.5 15.3333Z" fill="#CDA861"/>
<path fill-rule="evenodd" clip-rule="evenodd" d="M23.6893 23.6893C24.2751 23.1036 25.2248 23.1036 25.8106 23.6893L33.0606 30.9393C33.6464 31.5251 33.6464 32.4749 33.0606 33.0607C32.4748 33.6464 31.5251 33.6464 30.9393 33.0607L23.6893 25.8107C23.1035 25.2249 23.1035 24.2751 23.6893 23.6893Z" fill="#CDA861"/>
</svg>
