<svg width="40" height="39" viewBox="0 0 40 39" fill="none" xmlns="http://www.w3.org/2000/svg">
<path fill-rule="evenodd" clip-rule="evenodd" d="M15 34.8333C14.908 34.8333 14.8334 34.908 14.8334 35C14.8334 35.0921 14.908 35.1667 15 35.1667C15.0921 35.1667 15.1667 35.0921 15.1667 35C15.1667 34.908 15.0921 34.8333 15 34.8333ZM11.8334 35C11.8334 33.2511 13.2511 31.8333 15 31.8333C16.7489 31.8333 18.1667 33.2511 18.1667 35C18.1667 36.7489 16.7489 38.1667 15 38.1667C13.2511 38.1667 11.8334 36.7489 11.8334 35Z" fill="#CDA861"/>
<path fill-rule="evenodd" clip-rule="evenodd" d="M33.3333 34.8333C33.2412 34.8333 33.1666 34.908 33.1666 35C33.1666 35.0921 33.2412 35.1667 33.3333 35.1667C33.4253 35.1667 33.5 35.0921 33.5 35C33.5 34.908 33.4253 34.8333 33.3333 34.8333ZM30.1666 35C30.1666 33.2511 31.5844 31.8333 33.3333 31.8333C35.0822 31.8333 36.5 33.2511 36.5 35C36.5 36.7489 35.0822 38.1667 33.3333 38.1667C31.5844 38.1667 30.1666 36.7489 30.1666 35Z" fill="#CDA861"/>
<path fill-rule="evenodd" clip-rule="evenodd" d="M0.166626 1.66669C0.166626 0.83826 0.838199 0.166687 1.66663 0.166687H8.33329C9.04823 0.166687 9.66381 0.671265 9.80412 1.3723L11.2307 8.50002H38.3333C38.7803 8.50002 39.2041 8.69941 39.489 9.04385C39.774 9.38829 39.8905 9.84189 39.8067 10.281L37.1379 24.2756C36.9169 25.3882 36.3116 26.3876 35.428 27.099C34.5485 27.807 33.4489 28.1846 32.3203 28.1667H16.1463C15.0176 28.1846 13.9181 27.807 13.0386 27.099C12.1553 26.3879 11.5501 25.3888 11.3289 24.2766C11.3288 24.2763 11.3288 24.2759 11.3287 24.2756L8.54381 10.3615C8.53313 10.3183 8.52431 10.2744 8.51746 10.2299L7.10377 3.16669H1.66663C0.838199 3.16669 0.166626 2.49511 0.166626 1.66669ZM11.8312 11.5L14.2712 23.6911C14.355 24.1132 14.5846 24.4923 14.9198 24.7621C15.255 25.0319 15.6744 25.1752 16.1046 25.167L16.1333 25.1667H32.3333L32.362 25.167C32.7922 25.1752 33.2116 25.0319 33.5468 24.7621C33.8807 24.4933 34.1098 24.116 34.1944 23.6958C34.1947 23.6943 34.195 23.6927 34.1954 23.6911L36.5202 11.5H11.8312Z" fill="#CDA861"/>
</svg>
